<svg class="icon" style="width: 1em; height: 1em;vertical-align: middle;fill: #ffffff;overflow: hidden;" viewBox="0 0 1024 1024" version="1.1" xmlns="http://www.w3.org/2000/svg"><path d="M339.980287 865.145061q0-57.120491-94.274409-57.120491-90.251839 0-90.251839 59.460896 0 57.705592 98.296979 57.705592 86.302407 0 86.302407-59.972859zM306.336976 433.779301q0-34.886651-17.114206-58.290694t-50.830655-23.404043q-70.870366 0-70.870366 82.864938 0 77.160203 70.870366 77.160203 68.017999 0 68.017999-78.257267zM459.999143 248.594815l0 115.411185q-20.551675 6.874938-45.12592 12.579673 9.142204 24.574245 9.142204 47.978287 0 72.552532-41.688451 123.675737t-112.558817 64.287979q-22.818942 4.534533-34.008999 15.432041t-11.11692 33.131348q0 17.699307 12.872223 29.401328t33.131348 18.284408 44.833369 12.579673 49.148489 14.554389 44.833369 21.429326 33.131348 36.568817 12.872223 56.315977q0 173.701878-207.418327 173.701878-39.421184 0-74.307835-7.167488t-66.262696-23.404043-50.026141-46.881223-18.576959-72.845082q0-94.274409 104.001714-128.575959l0-2.267267q-38.250982-23.404043-38.250982-71.967431 0-62.313263 35.983715-78.257267l0-2.267267q-41.176487-13.676737-68.310549-62.020713t-27.134062-94.56696q0-79.427469 54.268124-132.305978t134.280694-52.878509q54.853225 0 101.734448 26.841511 56.023427 0 124.553389-26.841511zM641.673023 752.001143l-126.820656 0q2.267267-25.744447 2.267267-76.575102l0-347.988858q0-53.683023-2.267267-73.137633l126.820656 0q-2.267267 18.869509-2.267267 70.870366l0 350.256125q0 50.830655 2.267267 76.575102zM985.127348 625.180487l0 111.973716q-40.591386 22.306978-99.394043 22.306978-35.398614 0-61.143061-11.409471t-40.006285-28.596815-22.599529-44.540819-10.604957-52.585958-2.267267-58.875795l0-200.54339 1.170202 0 0-2.267267q-4.02257 0-10.82437-0.585101t-10.312406-0.585101q-11.994572 0-33.716449 3.437469l0-108.536247 54.853225 0 0-43.443754q0-30.864081-3.437469-50.830655l129.673023 0q-3.437469 23.404043-3.437469 94.274409l97.711878 0 0 108.536247q-8.557103 0-24.866795-1.170202t-24.281694-1.170202l-48.563388 0 0 208.588529q0 74.819799 49.73359 74.819799 34.886651 0 62.313263-18.869509zM656.007999 84.03514q0 33.131348-22.306978 57.998143t-54.853225 24.866795q-33.131348 0-56.023427-24.866795t-22.818942-57.998143q0-33.716449 22.599529-58.875795t56.315977-25.159346q33.131348 0 55.145775 25.451896t22.014428 58.583244z" /></svg>
